<svg xmlns="http://www.w3.org/2000/svg" viewBox="0 0 512 512" role="img" aria-labelledby="title">
  <title id="title">配對高手 App 圖示</title>
  <rect width="512" height="512" rx="112" fill="#0f1226"/>
  <circle cx="256" cy="256" r="176" fill="#1e2246" stroke="#6c5ce7" stroke-width="18"/>
  <circle cx="256" cy="256" r="116" fill="none" stroke="#00d2ff" stroke-width="18"/>
  <circle cx="256" cy="256" r="48" fill="#ffd166"/>
  <path d="M256 54v54M256 404v54M54 256h54M404 256h54" stroke="#eef0ff" stroke-width="18" stroke-linecap="round"/>
  <path d="M172 187h57a18 18 0 0 1 18 18v57a18 18 0 0 1-18 18h-57a18 18 0 0 1-18-18v-57a18 18 0 0 1 18-18Z" fill="#6c5ce7" transform="rotate(-8 200 234)"/>
  <path d="M283 232h57a18 18 0 0 1 18 18v57a18 18 0 0 1-18 18h-57a18 18 0 0 1-18-18v-57a18 18 0 0 1 18-18Z" fill="#ff5c7a" transform="rotate(8 312 278)"/>
</svg>
